<mxfile host="app.diagrams.net" modified="2024-05-17T00:40:57.144Z" agent="Mozilla/5.0 (Windows NT 10.0; Win64; x64) AppleWebKit/537.36 (KHTML, like Gecko) Chrome/123.0.0.0 Safari/537.36" etag="S4z5lH2xh_R7ngjLUb-V" version="24.4.3" type="github">
  <diagram name="PÃ¡gina-1" id="MzhAWVXdsWXZpEsDFayF">
    <mxGraphModel dx="1434" dy="780" grid="1" gridSize="10" guides="1" tooltips="1" connect="1" arrows="1" fold="1" page="1" pageScale="1" pageWidth="1169" pageHeight="826" math="0" shadow="0">
      <root>
        <mxCell id="0" />
        <mxCell id="1" parent="0" />
        <mxCell id="m3T2HgTwP3p-kdqrnD-R-1" value="&lt;font style=&quot;vertical-align: inherit;&quot;&gt;&lt;font style=&quot;vertical-align: inherit;&quot;&gt;Paciente&lt;/font&gt;&lt;/font&gt;" style="shape=umlActor;verticalLabelPosition=bottom;verticalAlign=top;html=1;outlineConnect=0;" vertex="1" parent="1">
          <mxGeometry x="540" y="250" width="30" height="60" as="geometry" />
        </mxCell>
        <mxCell id="m3T2HgTwP3p-kdqrnD-R-2" value="&lt;font style=&quot;vertical-align: inherit;&quot;&gt;&lt;font style=&quot;vertical-align: inherit;&quot;&gt;agendamento&lt;/font&gt;&lt;/font&gt;" style="ellipse;shape=umlEntity;whiteSpace=wrap;html=1;" vertex="1" parent="1">
          <mxGeometry x="700" y="240" width="80" height="80" as="geometry" />
        </mxCell>
        <mxCell id="m3T2HgTwP3p-kdqrnD-R-3" value="" style="endArrow=none;dashed=1;html=1;rounded=0;" edge="1" parent="1" source="m3T2HgTwP3p-kdqrnD-R-8">
          <mxGeometry width="50" height="50" relative="1" as="geometry">
            <mxPoint x="554.5" y="540" as="sourcePoint" />
            <mxPoint x="554.5" y="350" as="targetPoint" />
            <Array as="points" />
          </mxGeometry>
        </mxCell>
        <mxCell id="m3T2HgTwP3p-kdqrnD-R-5" value="" style="endArrow=none;dashed=1;html=1;rounded=0;" edge="1" parent="1" source="m3T2HgTwP3p-kdqrnD-R-10">
          <mxGeometry width="50" height="50" relative="1" as="geometry">
            <mxPoint x="739.5" y="540" as="sourcePoint" />
            <mxPoint x="739.5" y="350" as="targetPoint" />
            <Array as="points" />
          </mxGeometry>
        </mxCell>
        <mxCell id="m3T2HgTwP3p-kdqrnD-R-6" value="&lt;font style=&quot;vertical-align: inherit;&quot;&gt;&lt;font style=&quot;vertical-align: inherit;&quot;&gt;agendamento&lt;/font&gt;&lt;/font&gt;" style="ellipse;shape=umlEntity;whiteSpace=wrap;html=1;" vertex="1" parent="1">
          <mxGeometry x="910" y="240" width="80" height="80" as="geometry" />
        </mxCell>
        <mxCell id="m3T2HgTwP3p-kdqrnD-R-7" value="" style="endArrow=none;dashed=1;html=1;rounded=0;" edge="1" parent="1" source="m3T2HgTwP3p-kdqrnD-R-13">
          <mxGeometry width="50" height="50" relative="1" as="geometry">
            <mxPoint x="949.5" y="540" as="sourcePoint" />
            <mxPoint x="949.5" y="350" as="targetPoint" />
            <Array as="points" />
          </mxGeometry>
        </mxCell>
        <mxCell id="m3T2HgTwP3p-kdqrnD-R-9" value="" style="endArrow=none;dashed=1;html=1;rounded=0;" edge="1" parent="1" target="m3T2HgTwP3p-kdqrnD-R-8">
          <mxGeometry width="50" height="50" relative="1" as="geometry">
            <mxPoint x="554.5" y="540" as="sourcePoint" />
            <mxPoint x="554.5" y="350" as="targetPoint" />
            <Array as="points">
              <mxPoint x="554.5" y="360" />
            </Array>
          </mxGeometry>
        </mxCell>
        <mxCell id="m3T2HgTwP3p-kdqrnD-R-8" value="" style="html=1;points=[[0,0,0,0,5],[0,1,0,0,-5],[1,0,0,0,5],[1,1,0,0,-5]];perimeter=orthogonalPerimeter;outlineConnect=0;targetShapes=umlLifeline;portConstraint=eastwest;newEdgeStyle={&quot;curved&quot;:0,&quot;rounded&quot;:0};" vertex="1" parent="1">
          <mxGeometry x="550" y="360" width="10" height="80" as="geometry" />
        </mxCell>
        <mxCell id="m3T2HgTwP3p-kdqrnD-R-11" value="" style="endArrow=none;dashed=1;html=1;rounded=0;" edge="1" parent="1" target="m3T2HgTwP3p-kdqrnD-R-10">
          <mxGeometry width="50" height="50" relative="1" as="geometry">
            <mxPoint x="739.5" y="540" as="sourcePoint" />
            <mxPoint x="739.5" y="350" as="targetPoint" />
            <Array as="points">
              <mxPoint x="739.5" y="360" />
            </Array>
          </mxGeometry>
        </mxCell>
        <mxCell id="m3T2HgTwP3p-kdqrnD-R-10" value="" style="html=1;points=[[0,0,0,0,5],[0,1,0,0,-5],[1,0,0,0,5],[1,1,0,0,-5]];perimeter=orthogonalPerimeter;outlineConnect=0;targetShapes=umlLifeline;portConstraint=eastwest;newEdgeStyle={&quot;curved&quot;:0,&quot;rounded&quot;:0};" vertex="1" parent="1">
          <mxGeometry x="735" y="360" width="10" height="80" as="geometry" />
        </mxCell>
        <mxCell id="m3T2HgTwP3p-kdqrnD-R-14" value="" style="endArrow=none;dashed=1;html=1;rounded=0;" edge="1" parent="1" target="m3T2HgTwP3p-kdqrnD-R-13">
          <mxGeometry width="50" height="50" relative="1" as="geometry">
            <mxPoint x="949.5" y="540" as="sourcePoint" />
            <mxPoint x="949.5" y="350" as="targetPoint" />
            <Array as="points">
              <mxPoint x="949.5" y="360" />
            </Array>
          </mxGeometry>
        </mxCell>
        <mxCell id="m3T2HgTwP3p-kdqrnD-R-13" value="" style="html=1;points=[[0,0,0,0,5],[0,1,0,0,-5],[1,0,0,0,5],[1,1,0,0,-5]];perimeter=orthogonalPerimeter;outlineConnect=0;targetShapes=umlLifeline;portConstraint=eastwest;newEdgeStyle={&quot;curved&quot;:0,&quot;rounded&quot;:0};" vertex="1" parent="1">
          <mxGeometry x="945" y="360" width="10" height="80" as="geometry" />
        </mxCell>
      </root>
    </mxGraphModel>
  </diagram>
</mxfile>
